{"title":"The Experiment 2010 DVDSCR XVID FEEL-FREE","uid":5773047,"size":965059168,"categoryP":"video","categoryS":"movies","magnet":"?xt=urn:btih:88e98efdfeef412d282f15f962b9fa47a8bc3e58&amp;dn=The+Experiment+2010+DVDSCR+XVID+FEEL-FREE&amp;tr=udp%3A%2F%2Ftracker.openbittorrent.com%3A80&amp;tr=udp%3A%2F%2Fopen.demonii.com%3A1337&amp;tr=udp%3A%2F%2Ftracker.coppersurfer.tk%3A6969&amp;tr=udp%3A%2F%2Fexodus.desync.com%3A6969","seeders":0,"leechers":0,"uploader":"neon","files":-1,"time":1282170875,"description":"26 men are chosen to participate in the roles of guards and prisoners in a psychological study that ultimately spirals out of control. $2,500 for two weeks, it is easy-earned money. The study examines aggressive behavior in an artificial prison setting. At first the tenants are divided randomly into prisoners and guards, but soon a spiral of violence begins. When the professor and creator of the program leaves the project for a short time, the experiment escalates. This is the catalyst for the rest of the film. Guards and prisoners are left fighting to the bitter end\n\n# Adrien Brody as Travis\n# Forest Whitaker as Barris\n# Maggie Grace as Kelly\n# Clifton Collins Jr. as Nix\n# Cam Gigandet as Chase\n# Fisher Stevens\n# Ethan Cohn as Benjy\n# Travis Fimmel as Helweg\n# David Banner as Bosch\n &lt;a href=&quot;\nhttp://www.starshare.ro/bitbucket/vlcsnap-2010-08-18-21h57m28s63.jpg&quot; rel=&quot;nofollow&quot; target=&quot;_NEW&quot;&gt;\nhttp://www.starshare.ro/bitbucket/vlcsnap-2010-08-18-21h57m28s63.jpg&lt;/a&gt;\n &lt;a href=&quot;\nhttp://www.starshare.ro/bitbucket/vlcsnap-2010-08-18-21h57m34s117.jpg&quot; rel=&quot;nofollow&quot; target=&quot;_NEW&quot;&gt;\nhttp://www.starshare.ro/bitbucket/vlcsnap-2010-08-18-21h57m34s117.jpg&lt;/a&gt;\n &lt;a href=&quot;\nhttp://www.starshare.ro/bitbucket/vlcsnap-2010-08-18-21h57m40s181.jpg&quot; rel=&quot;nofollow&quot; target=&quot;_NEW&quot;&gt;\nhttp://www.starshare.ro/bitbucket/vlcsnap-2010-08-18-21h57m40s181.jpg&lt;/a&gt;\n &lt;a href=&quot;\nhttp://www.starshare.ro/bitbucket/vlcsnap-2010-08-18-21h57m47s236.jpg&quot; rel=&quot;nofollow&quot; target=&quot;_NEW&quot;&gt;\nhttp://www.starshare.ro/bitbucket/vlcsnap-2010-08-18-21h57m47s236.jpg&lt;/a&gt;\n\n\nGenre:Drama | Thriller\nLanguage:English\n &lt;a href=&quot; http://www.imdb.com/title/tt0997152/&quot; rel=&quot;nofollow&quot; target=&quot;_NEW&quot;&gt; http://www.imdb.com/title/tt0997152/&lt;/a&gt;\nSource:T0XiC.Thanks\n\nGeneral\nComplete name : THE EXPERIMENT 2010 DVDSCR XVID FEEL-FREE\nFormat : AVI\nFormat/Info : Audio Video Interleave\nFile size : 920 MiB\nDuration : 1h 35mn\nOverall bit rate : 1 340 Kbps\nVideo\nFormat : xvid\nCodec ID : xvid\nDuration : 1h 35mn\nBit rate : 1 199 Kbps\nWidth : 688 pixels\nHeight : 288 pixels\nDisplay aspect ratio : 2.35:1\nFrame rate : 29.970 fps\nResolution : 24 bits\nBits/(Pixel*Frame) : 0.202\nStream size : 823 MiB (89%)\nAudio #1\nID : 1\nFormat : MPEG Audio\nFormat version : Version 1\nFormat profile : Layer 3\nCodec ID : 55\nCodec ID/Hint : MP3\nDuration : 1h 35mn\nBit rate mode : Constant\nBit rate : 128 Kbps\nChannel(s) : 2 channels\nSampling rate : 48.0 KHz\nResolution : 16 bits\nStream size : 87.9 MiB (10%)\nAlignment : Aligned on interleaves\nInterleave, duration : 24 ms (0.72 video frame)\n\n","torrent":{"xt":"urn:btih:88e98efdfeef412d282f15f962b9fa47a8bc3e58","amp;dn":"The+Experiment+2010+DVDSCR+XVID+FEEL-FREE","amp;tr":["udp%3A%2F%2Ftracker.openbittorrent.com%3A80","udp%3A%2F%2Fopen.demonii.com%3A1337","udp%3A%2F%2Ftracker.coppersurfer.tk%3A6969","udp%3A%2F%2Fexodus.desync.com%3A6969"],"infoHash":"88e98efdfeef412d282f15f962b9fa47a8bc3e58","infoHashBuffer":{"type":"Buffer","data":[136,233,142,253,254,239,65,45,40,47,21,249,98,185,250,71,168,188,62,88]},"announce":[],"urlList":[]}}